<svg id="Ebene_1" data-name="Ebene 1" xmlns="http://www.w3.org/2000/svg" viewBox="0 0 494.89 492.45"><title>Burgermenue</title><path d="M174.55,254.81c2.09-.08,492.35-.25,494.89-.25V354c-2,0-493.12-.17-494.89-.25Q174.55,304.28,174.55,254.81Z" transform="translate(-174.55 -57.53)"/><path d="M174.55,450.78c2.09-.08,492.35-.25,494.89-.25V550H663.7s-487.39-.17-489.15-.25Q174.55,500.26,174.55,450.78Z" transform="translate(-174.55 -57.53)"/><path d="M669.43,57.53c0,4.92-.15,97.2-.15,98.51-1.66.09-493.3-.09-494.73-.18v-98C338.5,57.88,505.48,57.53,669.43,57.53Z" transform="translate(-174.55 -57.53)"/></svg>