<svg id="Ebene_1" data-name="Ebene 1" xmlns="http://www.w3.org/2000/svg" viewBox="0 0 517.2 515.71"><defs><style>.cls-1{fill:#fff;}</style></defs><title>Exit_weiß</title><path class="cls-1" d="M410.35,289.45c10.61-11,20.39-21.41,30.5-31.52q92.21-92.14,184.5-184.2c3-3,4.93-3.87,8.29-.36,9.9,10.35,20.07,20.44,30.3,30.47,3,3,3.63,5,.24,8.39Q572.51,203.3,481.05,294.57c-9.74,9.71-19.38,19.52-29.24,29.1-2.83,2.75-2.94,4.46,0,7.37Q551.61,431,651.27,531c5,5,9.87,10.12,15,15,2.63,2.54,2.69,4.47,0,7.11-10.54,10.26-21,20.59-31.25,31.14-3.16,3.25-5.09,2.59-7.9-.25q-30.43-30.75-61-61.31-76.23-76.51-152.46-153c-1.18-1.19-2.51-2.22-4.58-4-11.43,11.69-22.5,23.26-33.84,34.57q-90.45,90.24-181,180.38c-6.4,6.37-6.4,6.34-12.69,0-9.16-9.21-18.13-18.62-27.6-27.5-4.05-3.8-3.46-6,.15-9.58q73.78-73.3,147.34-146.81,32.67-32.56,65.41-65c1.33-1.32,2.56-2.73,4.05-4.32-1.17-1.39-2-2.6-3.09-3.64Q262.1,217.82,156.44,112c-3.4-3.41-3.43-5.41,0-8.7,10.33-9.92,20.44-20.07,30.47-30.3,3-3,5-2.89,8,.11Q286,164.73,377.22,256.21Z" transform="translate(-151.01 -70.78)"/></svg>