<svg id="Ebene_1" data-name="Ebene 1" xmlns="http://www.w3.org/2000/svg" viewBox="0 0 524.19 533.61"><defs><style>.cls-1{fill:#1d1d1b;}</style></defs><title>Lupe_black</title><path class="cls-1" d="M458.29,340.86c.79,1.58,3.34,3.66,5.25,5.56q88.54,88.37,177,176.86c6,6,6,6,.06,12-9.59,9.67-19.16,19.36-29.19,29.49-2.72-2.51-4.89-4.38-6.91-6.4q-89.14-89.1-178.17-178.32c-3.81-3.82-6.16-4.25-10.87-1-111.59,76-264.88,13-290.84-119.44C104,154.68,170.05,55.83,274.83,34.72,371.9,15.17,470.74,79.43,493.2,177.16c13.32,58,2,111.15-32.91,159.31C459.55,337.48,457.53,339.35,458.29,340.86Zm2.9-119c.06-84-68.32-152.83-151.9-153S157,137.37,156.8,221.27c-.2,84.25,68.36,153.29,152.21,153.28C392.62,374.54,461.12,305.8,461.19,221.86Z" transform="translate(-120.83 -31.22)"/></svg>