<svg id="Ebene_1" data-name="Ebene 1" xmlns="http://www.w3.org/2000/svg" viewBox="0 0 296.15 521.83"><defs><style>.cls-1{fill:#919191;}</style></defs><title>Pfeil_Navigation_grau</title><path class="cls-1" d="M230.87,302.61c1.74-1.88,3.32-3.72,5-5.42Q362.12,171.33,488.3,45.43c2.81-2.8,4.58-3.5,7.65-.3,9,9.42,18.21,18.69,27.63,27.72,3.63,3.48,3.16,5.54-.23,8.9Q414.42,190.11,305.6,298.59c-3.8,3.77-3.24,5.71.22,9.17q109.55,109.61,219,219.37c3,3,3,4.78,0,7.65-9.39,9.05-18.66,18.24-27.72,27.63-3.26,3.38-5.26,3.16-8.51-.12q-105.36-106-210.89-211.73c-15.05-15.11-30-30.36-44.92-45.56A29.53,29.53,0,0,1,230.87,302.61Z" transform="translate(-230.87 -43.01)"/></svg>