<svg xmlns="http://www.w3.org/2000/svg" viewBox="0 0 798.21 532.96"><defs><style>.cls-1{fill:#cb1429;}.cls-2{fill:#5eb130;}.cls-3{fill:#fff;}.cls-4{fill:#919191;}</style></defs><title>Sprite_all</title><g id="PfeilHighsc._rot" data-name="PfeilHighsc. rot"><path class="cls-1" d="M487,189.18c-.76-.69-1.33-1.14-1.84-1.66L381.9,84c-1.15-1.15-2.33-2.26-3.45-3.45,17.58.16,210-.12,218-.32a13.33,13.33,0,0,1-1.08,1.11q-47.92,47.79-95.84,95.58C495.43,181,491.29,184.94,487,189.18Z" transform="translate(-31.87 -39.14)"/></g><g id="PfeilHishsc._grün" data-name="PfeilHishsc. grün"><path class="cls-2" d="M720.6,190.43c-.76-.69-1.33-1.14-1.84-1.66L615.55,85.22c-1.15-1.15-2.33-2.26-3.45-3.45,17.58.16,210-.12,218-.32A13.33,13.33,0,0,1,829,82.56q-47.92,47.79-95.84,95.58C729.08,182.2,724.93,186.19,720.6,190.43Z" transform="translate(-31.87 -39.14)"/></g><g id="Lupe_black" data-name="Lupe black"><path d="M156,344.84a11.91,11.91,0,0,0,1.91,2q32.22,32.16,64.4,64.37c2.2,2.2,2.19,2.2,0,4.38l-10.62,10.73c-1-.91-1.78-1.59-2.51-2.33q-32.44-32.43-64.85-64.9c-1.39-1.39-2.24-1.55-4-.38C99.82,386.4,44,363.46,34.58,315.27c-7.49-38.19,16.55-74.17,54.69-81.85,35.33-7.12,71.3,16.27,79.48,51.84,4.85,21.09.73,40.45-12,58C156.5,343.6,155.76,344.28,156,344.84Zm1.06-43.31c0-30.56-24.87-55.62-55.28-55.67a55.69,55.69,0,0,0-55.5,55.46c-.07,30.66,24.88,55.79,55.4,55.79S157.07,332.07,157.09,301.52Z" transform="translate(-31.87 -39.14)"/><path class="cls-3" d="M348.69,329.42a11.91,11.91,0,0,0,1.91,2q32.22,32.16,64.4,64.37c2.2,2.2,2.19,2.2,0,4.38L404.4,410.93c-1-.91-1.78-1.59-2.51-2.33Q369.44,376.17,337,343.7c-1.39-1.39-2.24-1.55-4-.38C292.47,371,236.68,348,227.24,299.85c-7.49-38.19,16.55-74.17,54.69-81.85,35.33-7.12,71.3,16.27,79.48,51.84,4.85,21.09.73,40.45-12,58C349.15,328.19,348.42,328.87,348.69,329.42Zm1.06-43.31c0-30.56-24.87-55.62-55.28-55.67A55.69,55.69,0,0,0,239,285.89c-.07,30.66,24.88,55.79,55.4,55.79S349.72,316.66,349.75,286.11Z" transform="translate(-31.87 -39.14)"/></g><g id="PfeilNavi._grau" data-name="PfeilNavi. grau"><path class="cls-4" d="M431.76,301.4c.65-.7,1.24-1.38,1.87-2q47-46.88,94-93.78c1-1,1.71-1.31,2.85-.11,3.36,3.51,6.78,7,10.29,10.32,1.35,1.29,1.18,2.06-.08,3.32q-40.58,40.36-81.11,80.77c-1.41,1.41-1.21,2.13.08,3.41q40.81,40.83,81.56,81.71c1.12,1.12,1.11,1.78,0,2.85-3.5,3.37-7,6.79-10.32,10.29-1.21,1.26-2,1.18-3.17,0q-39.24-39.47-78.55-78.87c-5.61-5.63-11.16-11.31-16.73-17A11,11,0,0,1,431.76,301.4Z" transform="translate(-31.87 -39.14)"/></g><g id="Exit_black" data-name="Exit black"><path d="M715.71,280.13c3.64-3.76,7-7.34,10.46-10.81q31.63-31.6,63.28-63.17c1-1,1.69-1.33,2.84-.13,3.4,3.55,6.88,7,10.39,10.45,1,1,1.24,1.72.08,2.88q-31.44,31.23-62.8,62.54c-3.34,3.33-6.65,6.7-10,10-1,.94-1,1.53,0,2.53q34.24,34.26,68.41,68.59c1.71,1.72,3.39,3.47,5.13,5.15.9.87.92,1.53,0,2.44-3.61,3.52-7.21,7.06-10.72,10.68-1.08,1.12-1.74.89-2.71-.09q-10.44-10.55-20.94-21L716.8,307.66c-.41-.41-.86-.76-1.57-1.38-3.92,4-7.72,8-11.6,11.86q-31,31-62.08,61.86c-2.19,2.19-2.19,2.18-4.35,0-3.14-3.16-6.22-6.38-9.47-9.43-1.39-1.3-1.19-2.06.05-3.29q25.3-25.14,50.53-50.35,11.2-11.17,22.43-22.31c.46-.45.88-.94,1.39-1.48-.4-.48-.7-.89-1.06-1.25q-36.21-36.33-72.44-72.62c-1.17-1.17-1.18-1.86,0-3,3.54-3.4,7-6.88,10.45-10.39,1-1,1.71-1,2.73,0q31.24,31.43,62.54,62.8Z" transform="translate(-31.87 -39.14)"/></g><g id="Exit_weiß" data-name="Exit weiß"><path class="cls-3" d="M716.46,470.23c3.64-3.76,7-7.34,10.46-10.81q31.63-31.6,63.28-63.17c1-1,1.69-1.33,2.84-.13,3.4,3.55,6.88,7,10.39,10.45,1,1,1.24,1.72.08,2.88q-31.44,31.23-62.8,62.54c-3.34,3.33-6.65,6.7-10,10-1,.94-1,1.53,0,2.53q34.24,34.26,68.41,68.59c1.71,1.72,3.39,3.47,5.13,5.15.9.87.92,1.53,0,2.44-3.61,3.52-7.21,7.06-10.72,10.68-1.08,1.12-1.74.89-2.71-.09q-10.44-10.55-20.94-21l-52.29-52.48c-.41-.41-.86-.76-1.57-1.38-3.92,4-7.72,8-11.6,11.86q-31,31-62.08,61.86c-2.19,2.19-2.19,2.18-4.35,0-3.14-3.16-6.22-6.38-9.47-9.43-1.39-1.3-1.19-2.06.05-3.29q25.3-25.14,50.53-50.35,11.2-11.17,22.43-22.31c.46-.45.88-.94,1.39-1.48-.4-.48-.7-.89-1.06-1.25q-36.21-36.33-72.44-72.62c-1.17-1.17-1.18-1.86,0-3,3.54-3.4,7-6.88,10.45-10.39,1-1,1.71-1,2.73,0q31.24,31.43,62.54,62.8Z" transform="translate(-31.87 -39.14)"/></g><g id="Burgerm._black" data-name="Burgerm. black"><path d="M31.87,98.4c.63,0,147.88-.08,148.64-.08v29.87c-.59,0-148.11-.05-148.64-.08Q31.87,113.26,31.87,98.4Z" transform="translate(-31.87 -39.14)"/><path d="M31.87,157.26c.63,0,147.88-.08,148.64-.08v29.87h-1.72S32.4,187,31.87,187Q31.87,172.12,31.87,157.26Z" transform="translate(-31.87 -39.14)"/><path d="M180.51,39.14c0,1.48,0,29.19,0,29.59-.5,0-148.16,0-148.59-.05V39.25C81.11,39.25,131.26,39.14,180.51,39.14Z" transform="translate(-31.87 -39.14)"/></g><g id="Burgerm._weiß" data-name="Burgerm. weiß"><path class="cls-3" d="M201.17,98.64c.63,0,147.88-.08,148.64-.08v29.87c-.59,0-148.11-.05-148.64-.08Z" transform="translate(-31.87 -39.14)"/><path class="cls-3" d="M201.17,157.5c.63,0,147.88-.08,148.64-.08v29.87h-1.72s-146.39-.05-146.92-.08Q201.17,172.36,201.17,157.5Z" transform="translate(-31.87 -39.14)"/><path class="cls-3" d="M349.82,39.38c0,1.48,0,29.19,0,29.59-.5,0-148.16,0-148.59-.05V39.49C250.42,39.49,300.57,39.38,349.82,39.38Z" transform="translate(-31.87 -39.14)"/></g></svg>