<?xml version="1.0"?>
<!--Icons from directory ""-->
<svg xmlns="http://www.w3.org/2000/svg" width="32" height="160" viewBox="0 0 32 160"><svg id="arrow" viewBox="0 0 763.99 381.94" data-name="Ebene 1" width="32" height="32" y="0"><defs><style>.cls-1{fill:#cb1429;}</style></defs><title>Pfeil_Highscore_rot</title><path transform="translate(-52.14 -99.37)" class="cls-1" d="m432.44 481.3c-2.68-2.4-4.65-4-6.43-5.8q-180.91-181.5-361.79-362.94c-4-4-8.17-7.94-12.08-12.08 61.61 0.57 736-0.42 764-1.12a46.72 46.72 0 0 1 -3.8 3.88q-168 167.51-335.92 335c-14.28 14.24-28.81 28.22-43.98 43.06z"/></svg><svg id="exit" viewBox="0 0 517.2 515.71" data-name="Ebene 1" width="32" height="32" y="32"><title>Exit_black</title><path d="m410.35 289.45c10.61-11 20.39-21.41 30.5-31.52q92.21-92.14 184.5-184.2c3-3 4.93-3.87 8.29-0.36 9.9 10.35 20.07 20.44 30.3 30.47 3 3 3.63 5 0.24 8.39q-91.67 91.07-183.13 182.34c-9.74 9.71-19.38 19.52-29.24 29.1-2.83 2.75-2.94 4.46 0 7.37q99.8 99.96 199.46 199.96c5 5 9.87 10.12 15 15 2.63 2.54 2.69 4.47 0 7.11-10.54 10.26-21 20.59-31.25 31.14-3.16 3.25-5.09 2.59-7.9-0.25q-30.43-30.75-61-61.31-76.23-76.51-152.46-153c-1.18-1.19-2.51-2.22-4.58-4-11.43 11.69-22.5 23.26-33.84 34.57q-90.45 90.24-181 180.38c-6.4 6.37-6.4 6.34-12.69 0-9.16-9.21-18.13-18.62-27.6-27.5-4.05-3.8-3.46-6 0.15-9.58q73.78-73.3 147.34-146.81 32.67-32.56 65.41-65c1.33-1.32 2.56-2.73 4.05-4.32-1.17-1.39-2-2.6-3.09-3.64q-105.71-105.97-211.37-211.79c-3.4-3.41-3.43-5.41 0-8.7 10.33-9.92 20.44-20.07 30.47-30.3 3-3 5-2.89 8 0.11q91.09 91.62 182.31 183.1z" transform="translate(-151.01 -70.78)"/></svg><svg id="light_arrow" viewBox="0 0 296.15 521.83" data-name="Ebene 1" width="32" height="32" y="64"><defs><style>.cls-1{fill:#919191;}</style></defs><title>Pfeil_Navigation_grau</title><path transform="translate(-230.87 -43.01)" class="cls-1" d="m230.87 302.61c1.74-1.88 3.32-3.72 5-5.42q126.25-125.86 252.43-251.76c2.81-2.8 4.58-3.5 7.65-0.3 9 9.42 18.21 18.69 27.63 27.72 3.63 3.48 3.16 5.54-0.23 8.9q-108.93 108.36-217.75 216.84c-3.8 3.77-3.24 5.71 0.22 9.17q109.55 109.61 219 219.37c3 3 3 4.78 0 7.65-9.39 9.05-18.66 18.24-27.72 27.63-3.26 3.38-5.26 3.16-8.51-0.12q-105.36-106-210.89-211.73c-15.05-15.11-30-30.36-44.92-45.56a29.53 29.53 0 0 1 -1.91 -2.39z"/></svg><svg id="menu" viewBox="0 0 494.89 492.45" data-name="Ebene 1" width="32" height="32" y="96"><title>Burgermenue</title><path d="m174.55 254.81c2.09-0.08 492.35-0.25 494.89-0.25v99.44c-2 0-493.12-0.17-494.89-0.25q0-49.47 0-98.94z" transform="translate(-174.55 -57.53)"/><path d="m174.55 450.78c2.09-0.08 492.35-0.25 494.89-0.25v99.47h-5.74s-487.39-0.17-489.15-0.25q0-49.49 0-98.97z" transform="translate(-174.55 -57.53)"/><path d="m669.43 57.53c0 4.92-0.15 97.2-0.15 98.51-1.66 0.09-493.3-0.09-494.73-0.18v-98c163.95 0.02 330.93-0.33 494.88-0.33z" transform="translate(-174.55 -57.53)"/></svg><svg id="search" viewBox="0 0 524.19 533.61" data-name="Ebene 1" width="32" height="32" y="128"><defs><style>.cls-1{fill:#1d1d1b;}</style></defs><title>Lupe_black</title><path transform="translate(-120.83 -31.22)" class="cls-1" d="m458.29 340.86c0.79 1.58 3.34 3.66 5.25 5.56q88.54 88.37 177 176.86c6 6 6 6 0.06 12-9.59 9.67-19.16 19.36-29.19 29.49-2.72-2.51-4.89-4.38-6.91-6.4q-89.14-89.1-178.17-178.32c-3.81-3.82-6.16-4.25-10.87-1-111.59 76-264.88 13-290.84-119.44-20.62-104.93 45.43-203.78 150.21-224.89 97.07-19.55 195.91 44.71 218.37 142.44 13.32 58 2 111.15-32.91 159.31-0.74 1.01-2.76 2.88-2 4.39zm2.9-119c0.06-84-68.32-152.83-151.9-153s-152.29 68.51-152.49 152.41c-0.2 84.25 68.36 153.29 152.21 153.28 83.61-0.01 152.11-68.75 152.18-152.69z"/></svg></svg>
