<?xml version="1.0" encoding="UTF-8"?>
<svg width="28px" height="20px" viewBox="0 0 28 20" version="1.1" xmlns="http://www.w3.org/2000/svg" xmlns:xlink="http://www.w3.org/1999/xlink">
    <!-- Generator: Sketch 41 (35326) - http://www.bohemiancoding.com/sketch -->
    <title>dropdown-style</title>
    <desc>Created with Sketch.</desc>
    <defs></defs>
    <g id="Page-1" stroke="none" stroke-width="1" fill="none" fill-rule="evenodd">
        <g id="dropdown-style" fill="#000000">
            <polygon id="dark-line" points="0 0 0 20 2 20 2 0"></polygon>
            <path d="M11.1819334,10.1821323 C13.455628,12.4487968 15.7286893,14.7158239 18.0011174,16.9832134 C18.0770253,17.0588598 18.124836,17.077761 18.2077785,16.9913218 C18.4509069,16.73685 18.6997069,16.4864255 18.9541787,16.242485 C19.0522368,16.1484743 19.0395442,16.0928305 18.9479701,16.0020549 C16.9862037,14.050549 15.0254284,12.0979648 13.0656444,10.1443022 C12.9629884,10.0424584 12.9781176,9.99004974 13.0715915,9.89657592 C15.044527,7.92256659 17.0165586,5.94720356 18.9876861,3.97048684 C19.0687289,3.88944407 19.0687289,3.84135805 18.9876861,3.76382571 C18.7340265,3.51934829 18.483602,3.27108511 18.2388493,3.01742551 C18.1507857,2.92611301 18.0967526,2.93206009 18.0089643,3.02066061 C16.1114869,4.92965585 14.2124815,6.83622361 12.311948,8.7403639 C11.905385,9.14855129 11.5015203,9.56051067 11.0984678,9.97113472 C11.0812322,9.99046274 11.0643133,10.0114978 11.0484682,10.0333726 C11.093856,10.0864971 11.1365456,10.1362076 11.1819334,10.1821323 Z" id="Shape" transform="translate(15.048468, 10.000000) rotate(-90.000000) translate(-15.048468, -10.000000) "></path>
        </g>
    </g>
</svg>