<?xml version="1.0" standalone="no"?>
<!DOCTYPE svg PUBLIC "-//W3C//DTD SVG 20010904//EN"
 "http://www.w3.org/TR/2001/REC-SVG-20010904/DTD/svg10.dtd">
<svg version="1.0" xmlns="http://www.w3.org/2000/svg"
 width="700.000000pt" height="700.000000pt" viewBox="0 0 700.000000 700.000000"
 preserveAspectRatio="xMidYMid meet">
<metadata>
Created by potrace 1.11, written by Peter Selinger 2001-2013
</metadata>
<g transform="translate(0.000000,700.000000) scale(0.100000,-0.100000)"
fill="#000000" stroke="none">
<path d="M1304 6714 c-254 -42 -483 -161 -670 -348 -149 -149 -246 -309 -309
-508 -57 -181 -55 -84 -55 -2321 0 -1386 3 -2089 11 -2155 19 -180 72 -344
155 -487 186 -318 492 -534 855 -602 88 -17 224 -18 2209 -18 1977 0 2121 1
2208 18 246 46 477 165 646 333 216 215 333 457 365 756 8 66 11 769 11 2155
0 2237 2 2140 -55 2321 -63 199 -160 358 -309 508 -190 190 -419 307 -685 350
-126 20 -4254 19 -4377 -2z m4687 -515 c-12 -12 -20 -27 -17 -35 4 -9 -4 -18
-20 -24 -34 -13 -36 -13 -24 9 14 27 71 83 78 76 3 -3 -5 -15 -17 -26z m-316
-60 c-5 -15 -1 -19 20 -19 21 0 26 4 21 17 -4 9 -1 20 6 25 22 14 29 9 22 -17
-4 -18 -1 -27 10 -31 9 -3 16 -13 16 -21 0 -12 -3 -13 -14 -4 -11 9 -16 9 -22
0 -4 -7 -2 -15 4 -17 15 -5 16 -118 1 -127 -6 -4 -13 2 -16 14 -6 24 -8 25
-34 10 -14 -7 -18 -16 -14 -30 5 -15 2 -19 -14 -19 -21 0 -26 15 -15 44 3 9
11 13 16 10 6 -4 9 -1 6 6 -2 7 -23 14 -48 15 -25 1 -54 4 -65 6 -15 3 -21 -2
-23 -19 -3 -20 0 -23 16 -18 12 4 24 2 28 -5 5 -9 2 -10 -9 -6 -9 3 -19 2 -22
-3 -10 -16 -23 -11 -27 10 -3 17 -8 15 -45 -20 -49 -45 -62 -84 -18 -56 28 18
45 21 45 6 0 -5 -7 -10 -15 -10 -8 0 -15 -4 -15 -10 0 -5 -9 -10 -19 -10 -20
0 -31 -19 -31 -53 0 -33 15 -51 35 -43 16 6 17 8 1 25 -18 19 -12 31 15 31 10
0 27 12 38 28 34 44 41 52 52 52 16 0 -2 -54 -24 -71 -25 -20 -14 -44 13 -29
10 5 30 10 44 10 14 0 31 9 40 22 14 20 14 24 -1 40 -9 10 -11 18 -5 18 6 0
12 -5 14 -11 2 -7 12 -7 31 0 l27 11 -15 -29 c-11 -21 -11 -31 -3 -33 7 -3 9
-12 5 -22 -4 -9 -11 -14 -17 -11 -5 3 -10 2 -10 -3 0 -11 -43 -30 -77 -35 -11
-2 -29 -9 -38 -17 -15 -13 -19 -12 -36 9 -17 20 -20 21 -25 6 -4 -10 -1 -20 6
-25 26 -16 -1 -30 -48 -23 -43 6 -46 5 -33 -10 7 -10 20 -17 28 -17 13 0 13
-3 3 -15 -7 -8 -25 -14 -43 -12 -24 1 -32 -2 -35 -18 -6 -31 -32 -54 -74 -65
-21 -6 -38 -16 -38 -23 -1 -19 -48 -68 -62 -65 -9 2 -12 -8 -11 -30 1 -28 -5
-37 -38 -59 -21 -14 -39 -29 -39 -32 0 -11 -68 -41 -90 -41 -11 0 -24 -9 -31
-21 -7 -13 -17 -19 -29 -16 -12 3 -24 -3 -33 -17 -8 -12 -38 -38 -66 -57 -28
-18 -51 -40 -51 -46 0 -7 -4 -13 -9 -13 -5 0 -34 -20 -64 -45 -31 -25 -59 -45
-63 -45 -4 0 -12 -6 -18 -13 -17 -21 -400 -307 -411 -307 -7 0 -212 -160 -316
-247 -43 -35 -81 -63 -86 -63 -5 0 -20 -12 -34 -26 -13 -15 -60 -54 -104 -87
-44 -33 -105 -83 -135 -112 -30 -28 -144 -122 -252 -209 -109 -87 -198 -159
-198 -161 0 -2 11 -23 25 -46 14 -24 25 -51 25 -60 0 -9 7 -22 15 -29 8 -7 17
-28 20 -49 4 -20 19 -106 35 -191 16 -85 32 -177 36 -203 5 -38 10 -48 23 -44
9 2 90 53 180 113 232 154 265 174 276 171 5 -2 18 5 29 15 11 10 26 18 33 18
7 0 13 4 13 9 0 8 95 85 131 106 9 5 52 31 95 58 116 71 156 76 92 10 -18 -18
-27 -33 -21 -33 6 0 16 7 23 15 14 17 60 21 60 5 0 -5 -8 -6 -17 -3 -13 5 -15
2 -10 -11 4 -10 1 -18 -8 -21 -48 -15 -48 -15 -36 -29 10 -12 7 -15 -16 -18
-15 -2 -28 -8 -28 -15 0 -6 -36 -39 -79 -72 -43 -34 -90 -72 -104 -86 -14 -14
-31 -25 -39 -25 -8 0 -12 -4 -9 -8 3 -5 -7 -15 -22 -23 -15 -8 -30 -18 -33
-22 -3 -4 -17 -9 -31 -10 -15 -1 -35 -14 -47 -28 -11 -15 -34 -32 -50 -39 -17
-7 -33 -20 -36 -31 -3 -10 -23 -28 -43 -41 -60 -36 -202 -151 -202 -163 0 -8
78 35 90 51 8 8 21 12 36 8 20 -5 24 -2 24 15 0 21 62 61 93 61 8 0 22 11 31
25 9 14 23 25 31 25 8 0 15 5 15 10 0 6 5 10 11 10 6 0 27 14 46 31 19 17 41
28 49 25 8 -3 21 5 30 18 8 14 58 50 111 81 53 32 113 73 133 91 21 19 43 34
49 34 6 0 11 4 11 8 0 4 13 12 28 18 24 9 31 8 40 -5 9 -14 11 -13 11 7 1 25
19 30 27 7 4 -8 12 -15 19 -15 9 0 10 -10 2 -45 -9 -38 -18 -50 -59 -76 -55
-35 -55 -57 0 -33 20 9 43 18 50 21 25 11 10 -14 -38 -62 -27 -26 -50 -57 -52
-68 -4 -29 -36 -46 -49 -27 -8 12 -10 9 -6 -12 3 -20 -1 -29 -13 -33 -10 -3
-20 -15 -23 -26 -3 -10 -19 -24 -36 -30 -17 -6 -31 -16 -31 -23 0 -20 -47 -59
-61 -50 -9 5 -10 2 -6 -10 8 -21 -79 -126 -105 -126 -10 0 -22 -8 -27 -18 -6
-11 -45 -43 -88 -72 -43 -29 -113 -80 -155 -112 -43 -32 -82 -58 -88 -58 -5 0
-28 -16 -49 -35 -22 -20 -43 -34 -49 -33 -5 2 -26 -12 -45 -29 -20 -18 -40
-33 -43 -33 -17 0 -44 -35 -44 -57 0 -13 -7 -26 -15 -29 -10 -4 -15 -17 -13
-38 1 -17 -1 -37 -5 -43 -4 -6 0 -17 9 -24 13 -10 14 -28 9 -103 -4 -50 -13
-106 -22 -124 -8 -19 -16 -52 -18 -75 -3 -37 -6 -42 -27 -40 -21 3 -22 2 -5
-11 23 -18 14 -62 -20 -94 -26 -24 -23 -53 3 -31 8 6 17 9 20 6 8 -8 -16 -48
-25 -43 -5 3 -16 -3 -25 -13 -15 -17 -15 -19 4 -36 24 -21 26 -37 5 -29 -19 8
-20 -18 -2 -46 8 -14 9 -23 2 -28 -6 -4 -17 -20 -25 -36 -12 -23 -12 -30 -2
-33 6 -3 12 -12 12 -20 0 -9 -6 -13 -15 -9 -10 4 -15 -1 -15 -16 0 -17 -3 -18
-14 -9 -12 10 -17 8 -25 -8 -8 -14 -8 -22 1 -27 6 -4 14 -2 16 4 4 14 32 16
32 3 0 -5 -10 -16 -23 -24 -21 -14 -24 -13 -35 1 -10 14 -11 10 -9 -23 2 -34
-1 -40 -18 -40 -16 0 -20 -7 -21 -40 -1 -22 -5 -66 -9 -98 -7 -49 -11 -58 -31
-63 -22 -6 -23 -7 -9 -35 15 -28 13 -66 -11 -162 -4 -17 -2 -27 5 -27 6 0 11
-4 11 -10 0 -15 -26 -12 -40 5 -10 12 -8 22 9 51 14 23 18 41 13 46 -5 5 -8
28 -5 51 5 54 -8 77 -33 56 -9 -8 -26 -13 -36 -11 -17 3 -18 1 -9 -17 10 -18
7 -22 -19 -36 -31 -16 -40 -11 -17 9 20 16 11 126 -10 126 -12 0 -13 3 -4 14
9 10 8 16 -3 25 -13 11 -13 17 0 47 8 19 12 39 8 45 -3 5 1 21 10 34 14 21 14
25 0 36 -11 9 -13 24 -9 58 14 108 29 181 37 181 10 0 11 57 0 62 -13 5 23
448 36 448 12 0 -2 428 -14 440 -8 8 -13 -39 -18 -172 -8 -204 -21 -321 -37
-327 -7 -2 -8 -6 -2 -10 16 -10 -17 -353 -33 -347 -10 4 -12 -3 -7 -27 3 -18
10 -35 15 -38 6 -4 3 -22 -6 -44 -13 -29 -13 -41 -4 -52 19 -23 -22 -303 -44
-303 -6 0 -5 -6 2 -15 19 -23 -5 -93 -44 -128 -28 -25 -29 -28 -14 -44 16 -15
17 -14 24 10 9 39 26 33 19 -5 -3 -18 -8 -42 -10 -53 -2 -11 -4 -31 -5 -45 -1
-24 -1 -24 -15 -6 -8 11 -17 17 -20 14 -3 -3 4 -16 15 -31 22 -27 26 -47 10
-47 -5 0 -10 5 -10 11 0 6 -7 9 -15 5 -8 -3 -24 4 -36 17 -22 22 -22 22 -17 1
4 -17 2 -20 -13 -17 -16 5 -18 12 -13 47 4 22 10 45 15 51 5 5 9 22 9 37 0 15
4 28 8 28 5 0 7 14 4 30 -2 17 0 30 6 30 6 0 8 16 5 38 -3 21 2 83 11 137 10
65 13 127 9 177 -4 60 -2 88 11 121 10 28 18 86 21 158 4 100 11 174 15 174 7
0 5 77 -2 81 -5 3 -5 11 0 17 4 7 9 75 10 151 2 88 7 145 14 154 9 10 9 15 0
21 -8 4 -12 75 -15 226 -2 121 -6 283 -9 360 -7 156 -35 406 -48 418 -9 11
-125 -52 -233 -125 -16 -11 -39 -21 -53 -22 -13 -2 -27 -6 -31 -9 -3 -4 -16
-7 -29 -7 -12 0 -24 -4 -26 -8 -12 -29 -286 -132 -352 -132 -14 0 -26 -5 -28
-12 -3 -8 -44 -13 -124 -16 -95 -3 -126 -1 -154 12 -47 21 -153 89 -217 138
-44 33 -52 45 -55 76 -2 27 -9 40 -25 47 -13 5 -23 14 -23 20 0 5 -22 36 -48
67 -93 112 -117 142 -117 153 0 5 -7 21 -16 35 -54 82 -51 265 6 440 70 214
145 351 254 463 74 76 114 88 180 55 38 -20 47 -29 49 -56 2 -20 9 -32 18 -32
21 0 84 -43 84 -57 0 -7 6 -13 14 -13 19 0 76 -88 76 -117 0 -13 -6 -34 -14
-46 -28 -43 -164 -363 -179 -422 -28 -106 -57 -224 -57 -232 0 -5 7 -16 14
-25 12 -17 25 -13 177 53 90 39 181 78 202 86 20 9 37 20 37 24 0 5 42 30 93
55 50 26 94 51 95 56 2 5 36 25 75 45 40 19 76 42 80 49 4 8 12 14 18 14 5 0
19 9 31 20 12 11 32 20 45 20 14 0 23 6 23 15 0 15 34 38 43 29 6 -7 103 42
112 56 3 5 15 10 26 10 10 0 19 7 19 15 0 18 12 19 28 3 9 -9 12 -6 12 14 0
17 7 29 19 33 10 3 32 17 47 31 16 13 34 28 39 33 15 11 35 2 29 -14 -3 -7 -1
-16 5 -20 7 -4 14 6 17 25 4 17 15 35 26 41 10 5 16 14 13 19 -3 5 14 19 37
32 43 22 49 24 68 27 6 0 10 9 10 19 0 10 20 33 44 50 53 38 79 42 46 7 -13
-14 -27 -25 -32 -25 -5 0 -44 -36 -86 -80 -43 -44 -82 -80 -86 -80 -5 0 -25
-17 -45 -37 -50 -52 -80 -75 -91 -68 -5 3 -12 0 -17 -8 -4 -7 -20 -20 -34 -29
-15 -10 -44 -33 -65 -53 -22 -19 -44 -33 -51 -31 -7 3 -22 -4 -35 -15 -17 -15
-18 -19 -5 -15 27 9 20 -2 -13 -19 -16 -9 -30 -22 -30 -30 0 -8 -6 -15 -13
-15 -8 0 -24 -11 -37 -25 -13 -14 -29 -24 -35 -22 -5 2 -28 -7 -50 -20 -22
-13 -48 -26 -57 -30 -10 -3 -18 -9 -18 -13 0 -4 -19 -18 -42 -30 -24 -12 -45
-25 -48 -29 -6 -8 -38 -28 -70 -44 -39 -19 -99 -83 -90 -97 10 -15 47 4 264
134 140 84 171 107 185 136 18 40 39 59 62 60 9 0 22 7 29 15 7 8 23 15 35 15
13 0 45 16 71 35 27 19 76 52 108 72 33 21 75 55 95 77 44 47 114 96 137 96 9
0 34 20 56 45 22 25 45 45 52 45 7 0 60 43 118 95 58 52 110 95 115 95 5 0 33
25 63 55 30 30 62 55 72 55 10 0 18 6 18 13 0 19 16 38 34 41 9 1 33 18 54 38
20 19 72 59 114 87 61 40 83 50 103 45 15 -4 25 -2 25 5 0 6 -7 11 -15 11 -8
0 -15 5 -15 10 0 6 8 10 18 10 11 0 24 11 30 25 6 14 18 25 27 25 8 0 15 4 15
9 0 4 19 21 43 37 23 16 61 45 84 66 30 27 52 38 74 38 19 0 29 4 27 12 -8 22
111 116 131 104 4 -3 17 1 27 9 14 11 15 14 4 15 -22 0 0 16 42 29 21 7 37 18
35 24 -1 6 8 13 21 15 12 2 28 12 35 23 6 10 17 19 24 19 7 0 13 5 13 11 0 7
11 8 30 4 22 -5 30 -3 30 7 0 10 2 10 9 -1 8 -12 11 -9 16 12 4 14 10 26 14
25 18 -2 31 3 31 13 0 6 -7 9 -15 5 -32 -12 -13 15 20 28 19 8 35 19 35 24 0
6 10 12 23 16 13 3 40 16 59 30 20 13 39 22 42 19 3 -3 25 6 48 21 26 16 34
19 20 7 -22 -19 -23 -41 -1 -41 14 0 69 42 65 49 -2 3 12 14 30 23 30 16 35
16 40 3 5 -11 11 -12 25 -4 18 9 18 12 4 39 -13 26 -13 30 -1 30 8 0 16 -6 19
-12 3 -10 13 -9 41 5 20 9 43 17 50 17 13 0 26 20 26 41 0 16 -21 9 -39 -13
-13 -15 -23 -19 -37 -14 -19 7 -19 8 0 22 11 7 40 21 65 30 25 10 53 25 61 34
25 27 68 50 95 50 15 0 25 6 25 15 0 13 20 19 90 28 8 1 15 11 15 21 0 11 6
21 13 24 8 2 12 -2 10 -11 -3 -16 6 -19 30 -10 6 3 20 2 30 -2 11 -5 13 -9 4
-12 -6 -3 -10 -9 -6 -14 9 -15 21 -10 38 16 13 20 14 30 6 46 -11 19 -13 20
-30 4 -10 -9 -24 -14 -30 -10 -7 4 -3 14 12 27 17 15 32 19 61 15 33 -5 37 -3
37 16 0 16 14 30 48 48 51 29 66 28 57 -2z m215 5 c0 -26 -29 -37 -73 -27
l-42 9 30 16 c33 18 85 19 85 2z m155 -4 c-3 -5 -11 -10 -16 -10 -6 0 -7 5 -4
10 3 6 11 10 16 10 6 0 7 -4 4 -10z m-55 -41 c0 -5 -7 -9 -16 -9 -9 0 -22 -6
-28 -14 -6 -8 -21 -17 -33 -20 -18 -6 -20 -4 -16 14 4 14 11 19 23 15 9 -3 24
3 35 15 17 19 35 19 35 -1z m-119 -67 c-6 -2 -11 -11 -11 -20 0 -13 -3 -12
-14 4 -19 25 -2 51 21 32 10 -8 11 -14 4 -16z m-56 -37 c0 -27 -26 -25 -36 3
-8 20 -6 23 14 20 14 -2 22 -10 22 -23z m-680 -15 c-3 -5 -11 -10 -16 -10 -6
0 -7 5 -4 10 3 6 11 10 16 10 6 0 7 -4 4 -10z m660 -70 c-3 -5 -11 -10 -16
-10 -6 0 -7 5 -4 10 3 6 11 10 16 10 6 0 7 -4 4 -10z m-51 -56 c10 -25 -1 -29
-14 -5 -6 12 -7 21 -1 21 5 0 12 -7 15 -16z m-2159 -914 c-3 -5 -15 -10 -26
-10 -11 0 -22 -7 -25 -15 -7 -17 -24 -21 -24 -5 0 11 48 39 68 40 7 0 10 -4 7
-10z m-430 -3110 c3 -5 1 -10 -4 -10 -6 0 -11 5 -11 10 0 6 2 10 4 10 3 0 8
-4 11 -10z m-84 -393 c-13 -13 -15 21 -3 50 6 15 8 13 10 -11 2 -16 -1 -33 -7
-39z m-187 -279 c-3 -13 -13 -31 -22 -40 -13 -16 -13 -18 2 -24 9 -3 16 -12
16 -20 0 -17 0 -17 -40 3 -31 15 -32 17 -15 30 11 7 23 13 28 13 5 0 4 7 -3
15 -10 12 -10 18 0 30 20 24 43 19 34 -7z m-94 -7 c0 -6 -4 -13 -10 -16 -5 -3
-10 1 -10 9 0 9 5 16 10 16 6 0 10 -4 10 -9z m-15 -81 c-3 -5 -10 -10 -16 -10
-5 0 -9 5 -9 10 0 6 7 10 16 10 8 0 12 -4 9 -10z m70 -20 c17 -7 17 -9 3 -9
-24 -1 -23 -18 2 -26 23 -7 25 -24 7 -49 -13 -17 -15 -18 -38 -2 -23 14 -27
14 -45 0 -12 -10 -14 -14 -4 -11 23 7 50 -11 50 -33 0 -27 -16 -25 -45 6 -33
35 -31 50 5 69 17 9 28 20 24 26 -7 12 2 39 13 38 4 0 17 -4 28 -9z m-205 -84
c0 -6 -7 -2 -15 8 -8 11 -15 25 -15 30 0 6 7 2 15 -8 8 -11 15 -25 15 -30z
m-51 -18 c0 -7 -4 -22 -9 -33 -7 -17 -9 -15 -9 13 -1 17 4 32 9 32 6 0 10 -6
9 -12z m51 -42 c0 -2 -7 -6 -15 -10 -8 -3 -15 -1 -15 4 0 6 7 10 15 10 8 0 15
-2 15 -4z"/>
<path d="M5600 6083 c0 -23 15 -39 24 -25 3 5 -1 18 -9 28 -14 18 -14 18 -15
-3z"/>
<path d="M5682 6014 c9 -9 24 -14 32 -11 27 11 17 27 -16 27 -30 0 -31 -1 -16
-16z"/>
<path d="M5340 5944 c0 -13 -3 -14 -15 -4 -15 13 -39 5 -30 -11 4 -5 -1 -9 -9
-9 -9 0 -16 -4 -16 -10 0 -5 7 -10 15 -10 9 0 15 -9 15 -25 0 -18 -7 -26 -25
-31 -25 -6 -25 -7 -8 -24 19 -19 43 -10 43 16 0 8 7 14 16 14 12 0 14 7 9 30
-4 17 -3 30 2 30 4 0 16 12 26 25 17 24 17 25 -3 25 -12 0 -20 -7 -20 -16z"/>
<path d="M5396 5951 c-4 -7 -5 -15 -2 -18 9 -9 19 4 14 18 -4 11 -6 11 -12 0z"/>
<path d="M5200 5870 c0 -5 7 -10 15 -10 8 0 15 5 15 10 0 6 -7 10 -15 10 -8 0
-15 -4 -15 -10z"/>
<path d="M5366 5864 c-17 -17 -17 -35 0 -41 5 -2 15 6 22 18 18 29 1 46 -22
23z"/>
<path d="M5230 5800 c0 -5 7 -10 15 -10 8 0 15 5 15 10 0 6 -7 10 -15 10 -8 0
-15 -4 -15 -10z"/>
<path d="M5313 5762 c10 -10 14 -21 11 -25 -12 -11 5 -39 18 -30 7 4 19 8 27
8 8 0 16 6 19 14 3 10 0 12 -12 8 -9 -4 -16 -2 -16 3 0 14 -30 40 -47 40 -14
0 -14 -2 0 -18z"/>
<path d="M5017 5743 c-14 -13 -6 -24 15 -21 27 4 36 28 11 28 -11 0 -23 -3
-26 -7z"/>
<path d="M5126 5722 c-3 -6 -1 -14 5 -17 15 -10 25 3 12 16 -7 7 -13 7 -17 1z"/>
<path d="M4971 5691 c-36 -17 -44 -34 -20 -39 18 -3 75 43 63 51 -5 3 -24 -2
-43 -12z"/>
<path d="M5265 5690 c-3 -5 -3 -14 0 -20 8 -13 95 -13 95 0 0 24 -82 41 -95
20z"/>
<path d="M4867 5653 c-4 -3 -7 -13 -7 -21 0 -12 3 -12 15 -2 8 7 15 16 15 21
0 11 -14 12 -23 2z"/>
<path d="M4891 5621 c-10 -6 -10 -10 -1 -16 13 -8 24 -1 19 14 -3 6 -10 7 -18
2z"/>
<path d="M4567 5484 c-8 -8 3 -34 14 -34 5 0 9 9 9 20 0 19 -11 26 -23 14z"/>
<path d="M4460 5445 c-16 -19 -3 -40 16 -24 15 13 19 39 5 39 -5 0 -14 -7 -21
-15z"/>
<path d="M4388 5379 c-32 -23 -36 -41 -10 -38 30 3 43 -1 38 -10 -7 -10 28
-43 37 -35 3 4 0 16 -8 27 -12 18 -11 22 8 38 12 9 19 21 14 25 -4 4 -13 2
-19 -4 -8 -8 -14 -8 -22 3 -9 12 -15 11 -38 -6z"/>
<path d="M4970 5374 c-12 -13 -11 -17 1 -25 34 -21 59 -1 30 25 -17 15 -19 15
-31 0z"/>
<path d="M4510 5219 c7 -11 14 -18 17 -15 8 8 -5 36 -17 36 -7 0 -7 -6 0 -21z"/>
<path d="M4025 5121 c-10 -17 12 -21 25 -6 10 12 10 15 -3 15 -9 0 -18 -4 -22
-9z"/>
<path d="M1885 3673 c-71 -24 -131 -48 -133 -53 -2 -6 -12 -10 -23 -10 -25 0
-100 -29 -119 -46 -12 -12 -11 -14 11 -14 30 0 93 21 264 87 126 49 139 55
134 71 -2 5 -62 -11 -134 -35z"/>
<path d="M4170 3535 c0 -8 5 -15 10 -15 6 0 10 7 10 15 0 8 -4 15 -10 15 -5 0
-10 -7 -10 -15z"/>
<path d="M4148 3394 c-4 -5 0 -18 8 -29 15 -20 17 -12 5 19 -4 11 -10 15 -13
10z"/>
<path d="M2847 3173 c-7 -12 11 -53 24 -53 6 0 8 7 5 16 -3 9 -6 22 -6 30 0
15 -16 19 -23 7z"/>
<path d="M2840 3108 c1 -7 7 -26 15 -43 10 -23 14 -26 14 -10 1 29 -10 65 -20
65 -5 0 -9 -6 -9 -12z"/>
<path d="M3030 1641 c0 -5 7 -15 17 -22 15 -13 15 -12 4 9 -12 23 -21 28 -21
13z"/>
<path d="M2830 1606 c0 -9 5 -16 10 -16 6 0 10 4 10 9 0 6 -4 13 -10 16 -5 3
-10 -1 -10 -9z"/>
<path d="M2710 1530 c-12 -8 -10 -10 8 -10 13 0 20 4 17 10 -7 12 -6 12 -25 0z"/>
<path d="M2810 1375 c0 -18 19 -40 26 -32 4 4 0 15 -9 24 -9 10 -17 13 -17 8z"/>
<path d="M2680 1330 c-8 -5 -11 -12 -7 -16 4 -4 13 -2 19 4 15 15 7 24 -12 12z"/>
<path d="M2895 1289 c-4 -6 -5 -13 -2 -16 7 -7 27 6 27 18 0 12 -17 12 -25 -2z"/>
</g>
</svg>
