<?xml version="1.0" encoding="UTF-8"?>
<svg width="30px" height="20px" viewBox="0 0 30 20" version="1.1" xmlns="http://www.w3.org/2000/svg" xmlns:xlink="http://www.w3.org/1999/xlink">
    <!-- Generator: Sketch 41 (35326) - http://www.bohemiancoding.com/sketch -->
    <title>dropdown-style</title>
    <desc>Created with Sketch.</desc>
    <defs></defs>
    <g id="Page-1" stroke="none" stroke-width="1" fill="none" fill-rule="evenodd">
        <g id="dropdown-style" fill="#000000">
            <polygon id="dark-line" points="0 0 0 20 2 20 2 0"></polygon>
            <path d="M10.1819334,10.1821323 C12.455628,12.4487968 14.7286893,14.7158239 17.0011174,16.9832134 C17.0770253,17.0588598 17.124836,17.077761 17.2077785,16.9913218 C17.4509069,16.73685 17.6997069,16.4864255 17.9541787,16.242485 C18.0522368,16.1484743 18.0395442,16.0928305 17.9479701,16.0020549 C15.9862037,14.050549 14.0254284,12.0979648 12.0656444,10.1443022 C11.9629884,10.0424584 11.9781176,9.99004974 12.0715915,9.89657592 C14.044527,7.92256659 16.0165586,5.94720356 17.9876861,3.97048684 C18.0687289,3.88944407 18.0687289,3.84135805 17.9876861,3.76382571 C17.7340265,3.51934829 17.483602,3.27108511 17.2388493,3.01742551 C17.1507857,2.92611301 17.0967526,2.93206009 17.0089643,3.02066061 C15.1114869,4.92965585 13.2124815,6.83622361 11.311948,8.7403639 C10.905385,9.14855129 10.5015203,9.56051067 10.0984678,9.97113472 C10.0812322,9.99046274 10.0643133,10.0114978 10.0484682,10.0333726 C10.093856,10.0864971 10.1365456,10.1362076 10.1819334,10.1821323 Z" id="Shape" transform="translate(14.048468, 10.000000) rotate(-90.000000) translate(-14.048468, -10.000000) "></path>
        </g>
    </g>
</svg>