<?xml version="1.0" encoding="UTF-8"?>
<svg width="28px" height="20px" viewBox="0 0 28 20" version="1.1" xmlns="http://www.w3.org/2000/svg" xmlns:xlink="http://www.w3.org/1999/xlink">
    <!-- Generator: Sketch 41 (35326) - http://www.bohemiancoding.com/sketch -->
    <title>input-style 2</title>
    <desc>Created with Sketch.</desc>
    <defs></defs>
    <g id="Page-1" stroke="none" stroke-width="1" fill="none" fill-rule="evenodd">
        <g id="input-style" fill="#000000">
            <polygon id="dark-line" points="0 0 0 20 2 20 2 0"></polygon>
            <path d="M18.0951114,10.1097639 C18.1207316,10.0585236 18.2034225,9.99105941 18.2653773,9.92944259 C20.1796673,8.01883684 22.0930896,6.1069298 24.0056445,4.19372146 C24.2002292,3.99913671 24.2002292,3.99913671 24.007588,3.80455195 C23.6965802,3.49094163 23.3862147,3.1766891 23.0609265,2.84817312 C22.9727093,2.92957965 22.9023385,2.99021628 22.8368347,3.05573695 C20.9095769,4.98212716 18.9835078,6.90981865 17.0586273,8.83881143 C16.9350727,8.96270416 16.8588543,8.97664653 16.7060967,8.87124223 C13.0871312,6.40650199 8.11580671,8.44964192 7.27390739,12.744787 C6.60518073,16.1477556 8.74723542,19.3535537 12.1453538,20.0381662 C15.2934222,20.6721975 18.4988824,18.5881769 19.2272824,15.4187133 C19.6592592,13.5377274 19.292144,11.8140282 18.1599899,10.252145 C18.1359922,10.2193932 18.0704884,10.1587396 18.0951283,10.1097808 L18.0951114,10.1097639 Z M18.189159,13.9690451 C18.1911025,16.6932317 15.9734886,18.9254471 13.2629064,18.9309733 C10.5523242,18.9364996 8.32401273,16.7091344 8.3175232,13.9881926 C8.31103366,11.2558942 10.5344949,9.01686815 13.2538312,9.01718924 C15.9653767,9.01751034 18.1868945,11.2468189 18.189159,13.969062 L18.189159,13.9690451 Z" id="Shape" transform="translate(15.651827, 11.500000) rotate(90.000000) translate(-15.651827, -11.500000) "></path>
        </g>
    </g>
</svg>