<?xml version="1.0" encoding="UTF-8" standalone="no"?>
<!-- Generator: Adobe Illustrator 18.1.1, SVG Export Plug-In . SVG Version: 6.00 Build 0)  -->

<svg
   xmlns:dc="http://purl.org/dc/elements/1.1/"
   xmlns:cc="http://creativecommons.org/ns#"
   xmlns:rdf="http://www.w3.org/1999/02/22-rdf-syntax-ns#"
   xmlns:svg="http://www.w3.org/2000/svg"
   xmlns="http://www.w3.org/2000/svg"
   xmlns:sodipodi="http://sodipodi.sourceforge.net/DTD/sodipodi-0.dtd"
   xmlns:inkscape="http://www.inkscape.org/namespaces/inkscape"
   version="1.1"
   id="Layer_1"
   x="0px"
   y="0px"
   viewBox="0 0 128.49224 128.49228"
   enable-background="new 0 0 269.3 129"
   xml:space="preserve"
   inkscape:version="0.91 r13725"
   sodipodi:docname="Icon Fubuizz.svg"
   width="128.49223"
   height="128.49228"
   inkscape:export-filename="C:\Users\philipp\Desktop\TH_Koeln\2_SS2016\GVK\GdvK-SS16-Fubuizz-Ressourcen\Logo\Icon_Fubuizz.png"
   inkscape:export-xdpi="90"
   inkscape:export-ydpi="90"><metadata
     id="metadata149"><rdf:RDF><cc:Work
         rdf:about=""><dc:format>image/svg+xml</dc:format><dc:type
           rdf:resource="http://purl.org/dc/dcmitype/StillImage" /><dc:title /></cc:Work></rdf:RDF></metadata><defs
     id="defs147" /><sodipodi:namedview
     pagecolor="#ffffff"
     bordercolor="#666666"
     borderopacity="1"
     objecttolerance="10"
     gridtolerance="10"
     guidetolerance="10"
     inkscape:pageopacity="0"
     inkscape:pageshadow="2"
     inkscape:window-width="1920"
     inkscape:window-height="1058"
     id="namedview145"
     showgrid="false"
     inkscape:zoom="5.1986633"
     inkscape:cx="19.317153"
     inkscape:cy="61.993335"
     inkscape:window-x="1912"
     inkscape:window-y="-8"
     inkscape:window-maximized="1"
     inkscape:current-layer="Layer_1"
     fit-margin-left="5"
     fit-margin-top="5"
     fit-margin-right="5"
     fit-margin-bottom="5"
     showguides="false" /><path
     style="fill:#000000;fill-opacity:1"
     d="M 27.697266,5 C 15.122495,5 5,15.122495 5,27.697266 l 0,73.047504 118.49219,-72.57292 0,-0.474584 C 123.49219,15.122495 113.36774,5 100.79297,5 Z"
     id="rect4281"
     inkscape:connector-curvature="0"
     sodipodi:nodetypes="ssccsss" /><path
     style="fill:#e9c20c;fill-opacity:1"
     d="M 123.49224,27.829143 5.0000457,100.6741 l 0,0.085 c 0,12.57477 10.1224963,22.69922 22.6972663,22.69922 l 73.095708,0 c 12.57477,0 22.69922,-10.12445 22.69922,-22.69922 z"
     id="rect4283"
     inkscape:connector-curvature="0"
     sodipodi:nodetypes="ccssssc" /><g
     id="g3"
     style="fill:#ffffff"
     transform="matrix(1.2139943,0,0,1.2139943,-25.698722,-4.9991742)"><path
       d="m 42.5,39.3 0.2,-0.2 c 0.9,-0.6 1.8,-0.5 2.7,0.3 l 0.1,0.1 0,0.8 c 0.2,-0.1 0.7,0.1 1.5,0.7 0,0.2 0.1,0.3 0.1,0.4 0.2,-0.1 0.3,-0.1 0.4,0.1 l 0.2,0.2 c 0.1,0.1 0,0.1 0,0.2 0.1,0.1 0.1,0.1 0.2,0 0.7,1.1 0.8,1.8 0.2,2.2 l -1.6,3.6 c -0.7,1.4 -1.2,3 -1.5,4.9 -0.2,0.2 -0.3,0.6 -0.3,1.3 l 0.3,0.5 c 2.4,-1 4.4,-1.8 6,-2.6 0.1,-0.1 0.1,-0.1 0,-0.2 l 2.9,-1.5 0.2,-0.3 2,-1 c 0.1,-0.2 0.2,-0.3 0.5,-0.5 l 0.1,0.1 0.2,-0.3 0.6,-0.4 0.5,0 c -0.1,-0.2 -0.1,-0.3 0.1,-0.4 l 0.6,-0.4 0,0.3 c 0.9,-0.5 1.4,-0.7 1.6,-0.8 0.1,-0.2 0.2,-0.3 0.4,-0.4 0.1,0.1 0.3,0.2 0.4,0.1 -0.2,-0.2 -0.2,-0.4 0,-0.5 0.2,-0.1 0.3,0 0.5,0.3 l 0.1,-0.1 c -0.2,-0.2 -0.2,-0.4 0,-0.5 l 0.1,-0.1 0.7,-0.3 0,-0.3 0.7,-0.3 C 63.3,44.1 63.4,44 63.5,44 l 0.3,0.2 c 0,-0.1 0.2,-0.3 0.6,-0.6 l 0.1,0.1 0.2,-0.2 -0.2,-0.2 0.8,-0.5 c 0.1,-0.1 0.1,0 0.2,0 l 0.2,-0.3 0.1,-0.1 0.2,0.2 0.3,-0.2 c -0.2,-0.2 0,-0.5 0.6,-0.9 l 0.3,-0.2 c 0.1,-0.1 0.1,0 0.2,0 L 67.6,41 c 0.2,0 0.3,-0.1 0.4,-0.1 -0.1,-0.1 0,-0.1 0,-0.2 l 0.1,0.1 c 0.1,0.2 -0.1,0.5 -0.7,1 -0.2,0 -0.3,0.1 -0.4,0.1 -0.2,0.4 -0.4,0.6 -0.6,0.8 L 65.9,43 c -0.2,0.4 -0.6,0.8 -1,1.2 -0.2,0 -0.3,0.1 -0.4,0.1 -0.5,0.6 -0.9,1 -1.2,1.2 -0.2,0 -0.3,0.1 -0.4,0.1 0.1,0.2 0.1,0.3 -0.1,0.4 l -0.3,-0.2 -0.2,0.3 -0.1,0.1 c -0.2,0.1 -0.4,0.2 -0.5,0.2 -0.1,0.2 -0.2,0.3 -0.3,0.3 -0.1,-0.1 -0.1,-0.1 -0.2,0 0.1,0.2 0.1,0.3 -0.1,0.4 -0.1,0.1 -0.1,0 -0.2,0 l -0.2,0.3 -0.6,0.4 -0.2,-0.2 -0.6,0.4 0.1,0.1 0.3,-0.2 0.2,0.2 -0.7,0.3 0.1,0.1 -0.3,0 c -0.1,0.1 -0.2,0.3 -0.1,0.4 l 0.1,0.1 0.2,-0.3 0.5,0 c 0.2,-0.1 0.3,-0.3 0.4,-0.4 0.6,-0.1 1,-0.2 1.3,-0.4 1,-0.8 1.7,-1.3 2,-1.5 l 0.1,0.1 0.2,-0.3 0.8,-0.4 c -0.2,-0.2 0.5,-0.9 2.1,-1.9 0.1,0.1 0.3,0.2 0.4,0.1 0.4,-0.6 0.8,-1.1 1.3,-1.4 l 0.3,0 3.1,-2.8 c 0.1,-0.1 0.1,0 0.2,0 1,-0.8 1.5,-1.4 1.6,-1.6 L 74.2,38 c -0.1,-0.1 0,-0.4 0.3,-0.7 0.3,-0.1 0.4,-0.1 0.5,0 0.2,-0.3 0.4,-0.6 0.8,-0.9 l 2.8,-1.9 c 0.2,0.3 0.4,0.4 0.5,0.3 l 0,-0.3 c -0.2,0.1 -0.3,0.1 -0.4,-0.1 0.1,-0.2 0.2,-0.3 0.3,-0.3 l 0.3,0 c 0.1,-0.3 0.3,-0.6 0.5,-0.7 0.1,-0.1 0.1,0 0.2,0 l 0.2,-0.3 1.1,-0.8 c 0.1,-0.1 0.1,0 0.2,0 0.3,-0.5 0.8,-0.9 1.3,-1.2 l 0.8,0 c -0.2,-0.2 -0.2,-0.4 -0.1,-0.4 0.1,-0.1 0.1,0 0.2,0 0.6,-0.7 1,-1 1.1,-1.1 l 0.8,-0.4 0,0.3 0.5,-0.3 C 85.9,29.1 85.8,29 85.8,28.9 l 0.1,-0.1 1.3,-0.4 -0.2,-0.2 0.2,-0.2 0.5,0 0.3,-0.2 0.2,-0.5 0.3,0 c 0.1,-0.2 0.2,-0.3 0.3,-0.3 0.3,0.1 0.5,0.2 0.5,0.3 l 0.2,-0.2 -0.2,-0.2 c 0.2,-0.1 0.3,-0.1 0.4,0.1 l 0,0.3 0.1,-0.1 0.1,-0.8 c 0.1,0.1 0.3,0.2 0.6,0.1 l 0,-0.3 c -0.2,0.2 -0.4,0.2 -0.5,0 0.1,-0.2 0.2,-0.3 0.3,-0.3 0.3,-0.1 0.6,-0.2 0.9,-0.4 -0.1,-0.1 0,-0.1 0,-0.2 0.2,-0.1 0.7,-0.3 1.4,-0.6 0.1,-0.2 0.2,-0.3 0.4,-0.4 0.1,0.2 0.3,0.2 0.5,0 0.1,-0.2 0.2,-0.3 0.3,-0.3 l 0.1,0.1 0.2,-0.3 0.2,-0.2 0.2,0.2 -0.6,0.6 c -0.1,-0.1 -0.1,-0.1 -0.2,0 l 0.1,0.1 c 0.1,0.1 0.3,0.2 0.4,0.1 0,0 0.2,-0.2 0.4,-0.4 0.2,0 0.3,-0.1 0.4,-0.1 0,-0.2 -0.1,-0.4 -0.2,-0.5 l 0.1,-0.1 0.2,0.3 0.9,-0.6 0.1,0.1 c 0,0.2 0.1,0.3 0.1,0.4 l 0.5,-0.3 -0.4,-0.8 0.3,-0.2 0.2,0.2 0,0.3 c 0.9,-0.5 1.4,-0.6 1.5,-0.5 0.3,-0.4 0.4,-0.6 0.3,-0.7 l -0.5,0 0.2,0.2 -0.6,0.4 c -0.2,0.1 -0.3,0.1 -0.4,-0.1 L 97.1,22 c 0.6,-0.4 1.3,-0.7 2.2,-1 l 0,-0.3 0.7,-0.3 0.2,-0.3 c 0.4,-0.1 0.6,-0.1 0.7,0 l 0.2,0.2 c -0.2,0.2 -0.3,0.3 -0.2,0.5 l 0.3,-0.2 0.2,0.3 c 0.1,0.1 0,0.3 -0.1,0.6 l -0.7,0.3 0.5,0.2 c -0.1,0.1 -0.1,0.1 0,0.2 l 0.2,-0.2 0.2,-0.5 c 0.2,0 0.3,-0.1 0.4,-0.1 0,-0.2 -0.1,-0.4 -0.3,-0.7 l 0.1,-0.1 0.3,0 -0.2,-0.2 -0.7,0.2 -0.2,-0.2 c 0.1,-0.1 0.2,-0.3 0.2,-0.7 l 0.1,-0.1 1.5,-0.2 0.1,-0.1 c -0.2,-0.2 -0.2,-0.4 0,-0.5 l 0.1,-0.1 c 0.2,-0.1 0.3,-0.1 0.4,0.1 -0.2,0.2 -0.3,0.3 -0.2,0.5 l 0.1,0.1 0.2,-0.5 c 0.1,0.1 0.3,0.2 0.4,0.1 l -0.3,-0.5 0.1,-0.1 c 0.1,-0.1 0.1,0 0.2,0 0.1,-0.1 0.1,-0.1 0,-0.2 0.7,-0.4 1.2,-0.4 1.5,0 l 0.1,-0.1 c -0.2,-0.3 -0.2,-0.5 -0.1,-0.6 0,0 0.6,-0.3 1.6,-0.9 l 0.2,0.2 c 0.1,0.2 0,0.3 -0.2,0.5 0.1,0.1 0.3,0.2 0.6,0.1 l 0.1,-0.1 c -0.2,-0.2 -0.2,-0.4 0,-0.5 l 0.2,-0.2 c 0.2,-0.1 0.3,-0.1 0.4,0.1 l 0.1,0.1 c -0.3,0.2 -0.4,0.4 -0.2,0.7 0.2,-0.1 0.3,-0.1 0.4,0.1 0.1,0.2 0.1,0.3 -0.1,0.4 l -0.1,0.1 -0.2,-0.3 -0.3,0.2 0.3,0.2 0.1,0.1 c 0.1,0.8 0,1.3 -0.1,1.6 l 0.1,0.1 -0.1,0.1 c -0.2,0.1 -0.3,0.1 -0.4,-0.1 l -0.2,-0.2 0.2,-0.2 -0.1,-0.1 -0.6,0.4 0.1,0.6 c -0.4,0.1 -0.6,0.1 -0.7,0 l 0.1,-1.1 c -0.6,0.1 -1.1,0 -1.5,-0.3 -0.2,0.3 -0.3,0.5 -0.2,0.7 0.3,-0.2 0.5,-0.2 0.6,-0.1 l 0.2,0.3 -0.2,0.2 c -0.2,-0.2 -0.3,-0.3 -0.3,-0.3 -0.1,0.2 -0.2,0.3 -0.3,0.3 L 104.5,20 c 0.2,-0.1 0.2,-0.2 0.1,-0.4 -1,0.8 -1.5,1.3 -1.3,1.5 l 0.5,-0.2 c 0.1,-0.2 0.2,-0.3 0.3,-0.3 l 0.3,0.2 0.1,0.1 -0.3,0.2 -0.3,0 c 0.1,0.2 0.1,0.3 -0.1,0.4 -0.1,-0.2 -0.2,-0.2 -0.4,-0.1 -0.2,0.3 -0.3,0.8 -0.1,1.4 l 0.3,0 0.2,-0.2 -0.3,-0.2 -0.1,-0.1 0,-0.3 c 0.4,0 0.8,-0.2 1.4,-0.4 0.1,-0.2 0.2,-0.3 0.3,-0.3 l 0.2,0.3 -0.7,0.5 0.2,0.2 c 0.7,-0.3 1.1,-0.4 1.2,-0.2 0.2,-0.1 0.4,-0.4 0.5,-0.7 l -0.5,-0.5 -0.1,-0.1 c 0.1,-0.1 0.3,0 0.6,0.1 l 0,0.3 0.9,-0.4 c 0.1,0.1 -0.1,0.4 -0.4,0.9 0.2,0.1 0.3,0.2 0.3,0.3 l -0.2,0.5 -0.3,-0.2 c -0.1,0.1 -0.1,0.1 0,0.2 -1.3,0.9 -2.1,1.1 -2.4,0.6 l -0.2,-0.3 c -0.1,0.1 -0.2,0.2 -0.1,0.4 0.2,0.1 0.3,0.2 0.3,0.3 -0.1,0.1 -0.1,0.1 0,0.2 -0.4,0.2 -0.7,0.2 -0.7,0.2 -0.1,0.3 -0.3,0.6 -0.6,0.8 0,-0.1 -0.2,-0.2 -0.5,-0.3 l -0.3,0.2 c 0.1,0.2 0,0.5 -0.4,0.9 l -0.5,0.3 -0.5,0 0.1,0.1 -0.3,0 -0.1,0.1 c 0.2,0.2 0,0.5 -0.5,0.8 l -0.1,0.2 -0.2,0.3 -0.1,0.1 0,-0.3 -0.2,-0.2 c -0.1,0.5 -0.1,0.8 0.1,1.1 l -0.9,0.6 c -0.1,0.1 -0.1,0 -0.2,0 -0.2,0.2 -0.2,0.4 -0.2,0.5 -0.8,0.4 -1.3,0.6 -1.6,0.4 -0.1,0.3 -0.3,0.6 -0.5,0.7 l -0.1,0.1 C 95.9,30.1 95.8,30 95.8,30 c -0.1,0.3 -0.3,0.6 -0.5,0.7 l -1.1,0.8 -0.2,0.3 -0.2,-0.2 -0.1,0.1 0.1,0.1 c 0.2,0.1 0.3,0.2 0.3,0.3 L 94,32 93.3,32.3 c -0.7,0.6 -1.3,1 -1.6,1.3 l -0.1,-0.1 -0.2,0.3 c -2.6,2 -4.6,3.5 -5.8,4.3 l -0.2,0.3 -0.3,0 c -2.9,2.2 -4.9,3.8 -5.9,4.7 L 79,43 c -0.1,0.4 -1.3,1.4 -3.5,2.9 0.1,0.2 -2.3,2.2 -7.3,6.1 l 0.1,0.1 c 0.7,1 0.9,1.6 0.7,1.7 l 0.3,0.2 0.2,0.2 c 0,0.8 0.2,1.8 0.5,3 0.5,2.7 0.7,4.1 0.6,4.1 l 0.2,0.2 c 2.1,-1.3 3.7,-2.4 4.9,-3.2 l 0.1,-0.1 c 0.2,-0.1 0.3,-0.3 0.4,-0.4 0.2,0 0.4,-0.1 0.5,-0.2 l 0.8,-0.5 c 0.2,-0.1 0.3,-0.1 0.4,0.1 l 0.2,-0.3 0.5,-0.3 c 0.1,-0.1 0.1,0 0.2,0 l 0.2,-0.3 0.2,-0.2 c 0.4,-0.3 0.9,-0.7 1.5,-1.2 l 0.3,0 0.2,-0.3 c 0.8,-0.5 1.5,-0.8 1.9,-1.1 l 0.3,-0.2 0.7,-0.3 0.2,0.2 c -0.5,0.6 -0.9,0.9 -1,1 l 0.2,0.2 0.5,-0.5 0.1,-0.1 c 0.1,-0.1 0.3,0 0.6,0.1 l 0.1,0.1 -0.2,0.2 -0.2,-0.2 -0.3,0.2 0.3,0.2 -0.2,0.2 c -0.4,0 -0.6,0.1 -0.8,0.2 l 0.3,0.2 0.1,0.1 -0.3,0.2 -0.5,0 -0.1,0.1 c 0.1,0.2 0.1,0.3 0,0.3 -0.2,0.1 -0.9,0.7 -2.2,1.7 l -0.1,-0.1 c -0.1,0.3 -0.3,0.6 -0.5,0.7 l -0.2,0.2 -0.5,0 c 0.1,0.1 0.1,0.2 0.1,0.4 l -0.3,0 c -0.1,0.2 -0.2,0.3 -0.3,0.3 l -0.1,-0.1 -0.2,0.3 -0.6,0.2 -0.2,-0.2 -0.5,0.8 c -0.5,0.2 -0.8,0.4 -1,0.5 -0.1,0.3 -0.3,0.6 -0.5,0.7 l -0.6,0.4 c -0.1,0.1 -0.1,0 -0.2,0 l -0.2,0.3 -1.1,0.8 -1.3,1.1 0.1,0.1 c 0.5,-0.4 0.9,-0.5 1,-0.5 0.1,-0.2 0.2,-0.3 0.4,-0.4 L 74,62.8 c 0.2,-0.1 0.3,0 0.5,0.2 l 0.2,-0.2 c -0.1,-0.1 -0.1,-0.3 0,-0.5 1,-0.5 1.5,-0.7 1.6,-0.6 l 0.6,-0.8 0.3,0 c 0.1,-0.2 0.2,-0.3 0.3,-0.3 0.1,-0.1 0.1,0 0.2,0 l 0.5,-0.5 0.6,-0.4 0.2,0.2 c 0.1,-0.1 0.3,-0.3 0.5,-0.7 1,-0.6 1.9,-1.1 2.5,-1.5 l 1,-0.7 0.6,-0.6 0.3,0 c 0.1,-0.1 0.1,-0.1 0,-0.2 0.4,-0.1 0.7,-0.3 0.9,-0.4 l 0.1,0.1 0,0.3 0.3,0 c 0,-0.2 -0.1,-0.3 -0.1,-0.4 l 0.3,-0.2 0.1,0.1 c 0,0.2 0.1,0.3 0.1,0.4 0.2,-0.1 0.3,-0.1 0.4,0.1 l -0.3,1.3 -1.5,1 0.2,0.2 c 0.8,-0.4 1.3,-0.6 1.4,-0.6 l 0.2,0.2 c -1.1,1 -1.7,1.6 -1.8,1.9 C 84.1,60 84,60 83.8,60.1 l 0,-0.1 c 0.1,0.2 0.3,0.2 0.5,0 l 0.2,0.2 c -0.3,0.2 -0.5,0.4 -0.6,0.6 l -0.3,-0.2 c 0.1,-0.1 0.1,-0.1 0,-0.2 l -0.1,0.1 c -0.2,0.1 -0.1,0.3 0.1,0.6 L 83,61.4 c 0.1,0.2 0.1,0.3 -0.1,0.4 l -0.3,0.2 -0.7,0.3 c 0.1,0.3 -0.1,0.6 -0.5,0.8 l -0.2,0.2 -0.2,-0.2 -0.2,0.2 0.3,0.2 -1.5,1.7 -0.5,0 -0.2,0.5 -2.6,1.8 c -0.6,0.4 -1.3,0.9 -2.1,1.6 -0.2,0 -0.4,0.1 -0.7,0.3 l -0.9,0.9 -0.2,-0.3 -0.7,0.7 -0.1,0.1 c -0.1,0.1 -0.1,0 -0.2,0 -0.1,0.1 -0.1,0.1 0,0.2 l -0.5,0.2 c -0.3,0.2 -0.5,0.6 -0.5,1.2 l -0.1,0.1 -0.3,0 c 0.2,0.7 0.1,1.1 -0.1,1.3 l 0.3,0.2 0.1,0.1 c 0,0.9 0,1.3 -0.1,1.4 -0.1,0.1 -0.1,0.6 0,1.5 -0.3,0.2 -0.5,0.9 -0.7,2 0.1,-0.1 0.1,0 0.2,0 l -0.2,0.3 -0.1,0.1 -0.2,-0.2 -0.3,-0.2 0.3,0.5 0.1,-0.1 0.2,0.2 c -0.2,0.2 -0.3,0.5 -0.3,1 l -0.3,0 -0.1,0.1 c -0.1,0.3 -0.2,0.5 -0.3,0.5 l 0.2,0.2 0.2,-0.3 c 0.2,-0.1 0.3,-0.1 0.4,0.1 l -0.3,0.6 -0.1,0.1 -0.2,-0.2 -0.5,0.5 0.7,0.7 -0.2,0.2 -0.2,-0.3 -0.2,0.2 c 0.1,0.1 0.1,0.2 0.1,0.4 l 0.4,0.6 c -0.2,0 -0.3,0.1 -0.4,0.1 0.1,0.1 -0.1,0.4 -0.4,0.9 l 0.3,0.2 c 0,0.2 0.1,0.3 0.1,0.4 -0.2,0.1 -0.3,0 -0.5,-0.2 -0.1,0.1 -0.1,0.3 0,0.7 l 0.2,0.3 -0.2,0.3 -0.3,0 C 67.5,86.9 67.4,87 67.3,87 l -0.1,-0.1 0,-0.3 -0.3,0 c 0.3,0.6 0.3,1 0,1.2 -0.1,-0.2 -0.2,-0.2 -0.4,-0.1 -0.1,0.1 -0.2,0.3 -0.1,0.6 0.1,-0.1 0.1,0 0.2,0 -0.4,1.3 -0.5,2 -0.3,2.2 l -0.5,0.3 -0.3,0 c 0.5,0.8 0.6,1.2 0.3,1.5 0.1,0.6 -0.1,1.1 -0.4,1.6 l 0.3,0.2 0.2,0.2 -0.1,0.1 c -0.1,0.1 -0.3,0 -0.7,-0.2 -0.2,-0.3 0,-0.7 0.5,-1.2 -0.1,-0.2 -0.1,-0.3 0,-0.3 l -0.3,-0.2 c 0.3,-0.6 0.3,-1.1 0,-1.5 L 65,91 c -0.1,0.2 -0.2,0.3 -0.4,0.4 -0.2,-0.2 -0.3,-0.3 -0.5,-0.2 0.2,0.2 0.3,0.5 0.3,0.7 -0.2,0 -0.4,0.1 -0.8,0.4 l -0.2,-0.2 0.5,-0.3 c -0.1,-0.4 -0.1,-1 -0.1,-1.8 -0.2,0 -0.3,0.1 -0.4,0.1 -0.1,-0.2 -0.1,-0.3 0.1,-0.4 0.1,0.1 0.1,0.1 0.2,0 l -0.2,-0.3 -0.3,-0.2 c 0.2,-0.2 0.3,-0.5 0.3,-0.8 l 0.3,-0.2 C 63.6,88.1 63.5,88 63.5,87.9 63.6,87.6 63.7,87.4 64,87.2 L 63.7,87 63.5,86.8 c 0.1,-1.4 0.3,-2.6 0.5,-3.5 l 0.3,0 c -0.2,-0.3 -0.2,-0.5 0,-0.7 L 64,82.4 c 0.3,-4.5 0.5,-6.7 0.6,-6.8 0.1,0.1 0.1,0.1 0.2,0 -0.2,-0.3 -0.2,-1.5 -0.1,-3.6 0.1,-1.7 0,-2.8 -0.3,-3.2 L 64.2,69 c 0.2,0.2 0.1,2.4 -0.2,6.5 l -0.2,1 -0.3,0 0,0.3 0.2,-0.2 0.1,0.1 -0.5,5.3 -0.1,0.1 -0.2,-0.3 -0.1,0.1 c 0.2,0.3 0.3,0.7 0.1,1.1 l 0.2,-0.2 0.2,0.2 -0.5,1.2 0.3,0.2 0.1,0.1 C 62.9,87.4 62.7,89 62.5,89 l -0.3,0 0.1,0.1 c 0.2,0.1 0.3,0.2 0.4,0.4 -0.4,0.6 -0.5,1 -0.3,1.2 l -1.1,0.8 c 0.2,0.1 0.3,0.2 0.5,0.5 l 0.2,-0.7 0.2,-0.2 0.2,0.2 c -0.2,0.2 -0.3,0.6 -0.3,1.2 l -0.3,0 -0.1,0.1 0.1,0.1 0.2,-0.2 0.1,0.1 c -0.1,0.3 -0.1,0.6 0,0.7 l -0.2,0.2 -0.2,-0.2 0,-0.3 -0.3,0 c 0.1,0.1 0.1,0.2 0.1,0.4 l 0.6,0.6 c -0.1,0.1 -0.2,0.2 -0.3,0.3 l -0.1,-0.1 c 0,-0.2 -0.1,-0.3 -0.1,-0.4 l -0.2,0.3 C 61.3,94 61,93.9 60.4,93.9 L 60,94 c 0.2,-0.2 0.4,-0.7 0.4,-1.6 0.1,0.1 0.1,0.1 0.2,0 -0.1,-0.4 -0.1,-0.7 0.1,-0.9 0.1,0.1 0.1,0.1 0.2,0 -0.1,-0.2 -0.2,-0.5 -0.1,-0.9 0.2,0 0.3,-0.1 0.4,-0.1 C 61,90.4 60.9,90.3 60.9,90.2 60.8,90 61,88.7 61.4,86.2 61,85 61.1,83.9 61.6,83 l 0.2,-2.2 c -0.2,-0.3 -0.2,-1 0.2,-2 l -0.2,-0.3 0.3,-0.2 c -0.3,-0.4 -0.2,-0.7 0.1,-0.9 l -0.3,-0.2 -0.1,-0.1 c 0.5,-0.3 0.5,-0.7 0.1,-1.3 0.2,-0.2 0.3,-0.3 0.3,-0.3 -0.2,-0.1 -0.3,-0.2 -0.3,-0.3 0.3,-0.2 0.4,-1.1 0.2,-2.7 0.3,-0.2 0.4,-0.3 0.4,-0.4 L 62.2,72 62.1,65.5 C 61.8,65.1 61.8,64.7 62,64.2 61.8,61.1 61.6,58.7 61.3,57 l -0.2,-0.2 c -1.3,0.8 -2,1.1 -2.1,1.1 -0.1,0.1 -0.1,0.1 0,0.2 -0.6,0.3 -1.1,0.5 -1.3,0.6 L 57.5,59 c -0.5,0.2 -0.8,0.3 -0.9,0.1 l -0.2,0.3 c -0.4,0.1 -0.6,0 -0.7,0 -0.1,0.1 -0.1,0.1 0,0.2 -0.1,0.1 -0.5,0.2 -1.1,0.4 -0.1,0.2 -0.2,0.3 -0.3,0.3 l -0.6,0.1 -0.2,0.3 c -2.2,0.7 -3.4,0.9 -3.5,0.8 l -0.2,0.3 c -2.7,0.4 -4.4,0.2 -5,-0.6 -1.4,-0.7 -2.5,-1.5 -3.3,-2.3 L 41.6,58 c -0.4,-0.3 -0.7,-0.4 -0.7,-0.3 -0.1,-0.1 -0.1,-0.2 -0.1,-0.4 -0.8,-0.8 -1.3,-1.5 -1.7,-2 -0.1,-0.1 0,-0.1 0,-0.2 -0.5,-0.4 -0.8,-0.6 -0.9,-0.8 L 38.4,54 37.9,53.5 c -0.7,-1.9 -0.7,-4 0.1,-6.3 1,-3.4 2.5,-6.1 4.5,-7.9 z m 2.9,16.9 0.1,0.1 c 0.7,0 2.8,-0.8 6.2,-2.2 l 0,-0.3 c -2.5,0.9 -3.8,1.3 -3.9,1.3 -0.1,0.2 -0.2,0.3 -0.3,0.3 -0.5,0 -1.2,0.3 -1.9,0.6 l -0.2,0.2 z m 6.3,-2.7 c 0.2,0.1 0.3,0.2 0.3,0.3 l 0.2,-0.2 c 0.1,0.2 2.1,-1 6,-3.4 0.4,-0.3 0.6,-0.7 0.5,-1.2 -0.1,0.1 -0.1,0 -0.2,0 l -0.8,0.9 -0.3,-0.2 C 57.3,49.9 57.2,50 57.1,50 l -0.3,0 -0.2,0.3 -0.3,0 -0.2,0.3 -0.3,0 c -0.1,0.2 -0.2,0.3 -0.4,0.4 -0.1,0.1 -0.1,0 -0.2,0 -0.1,0.2 -0.2,0.3 -0.3,0.3 l -0.5,0.2 c -0.1,0.2 -0.2,0.3 -0.3,0.3 L 54,51.7 53.8,52 53.3,52.3 c -0.2,0.1 -0.4,0.2 -0.5,0.2 l -0.2,0.3 c -0.3,0.5 -0.8,0.7 -0.9,0.7 z m 8.4,41.9 0.3,0.2 -0.3,0.8 -0.1,-0.1 c 0,-0.5 0,-0.7 0.1,-0.9 z m 0.5,-2 c 0.1,0.1 0,0.4 -0.1,0.8 L 60.8,94 c 0.2,-0.1 0.2,-0.3 0,-0.5 l -0.1,-0.1 -0.1,0 z m 0,1.4 0.2,-0.2 c 0,0.2 0.1,0.4 0.3,0.7 l -0.2,0.2 -0.3,-0.7 z m 0,1.5 0.1,-0.1 c 0.2,0 0.3,-0.1 0.4,-0.1 l 0.1,0.1 -0.5,0.3 -0.1,-0.2 z m 0.9,-6.3 0.2,0.2 0.1,-0.1 C 62,90 62,89.9 61.9,89.7 L 61.5,90 Z m 0.3,-3.1 c 0.1,0.1 0.4,0.1 0.8,0 l -0.2,-0.3 -0.2,0.3 c -0.2,-0.1 -0.4,0 -0.4,0 z m 2,7 0.5,0.2 0.2,0.2 -0.5,0 -0.1,0.1 0.1,0.1 0.5,0.2 0.1,0.1 c 0.1,0.1 -0.1,0.4 -0.4,0.9 -0.4,-0.4 -0.7,-0.5 -0.8,-0.5 l -0.6,0.4 -0.1,-0.1 c -0.1,-0.2 -0.1,-0.3 0.1,-0.4 l 0.8,-0.4 0.1,-0.1 c -0.4,-0.1 -0.3,-0.4 0.1,-0.7 z m -0.9,-0.4 0.3,0.2 -0.2,0.3 -0.1,0 -0.1,-0.1 c -0.1,-0.1 0,-0.3 0.1,-0.4 z m 0,2.2 0.2,-0.2 c 0.1,-0.1 0.4,0 0.7,0.3 0,0.2 0.1,0.3 0.1,0.4 l -0.2,0.2 c -0.2,-0.2 -0.3,-0.3 -0.5,-0.2 l -0.3,-0.5 z m 0.2,-3.3 0.1,-0.1 0.1,0.1 c 0.1,0.2 0.1,0.3 -0.1,0.4 L 63,93 c -0.1,-0.2 0,-0.3 0.1,-0.6 z m 0,-0.7 0.3,-0.2 c 0.1,0.2 0.1,0.3 -0.1,0.4 l -0.2,-0.2 z m 0.5,-2.5 0.4,0.6 c 0.2,-0.1 0.2,-0.2 0.1,-0.4 -0.2,-0.1 -0.3,-0.2 -0.3,-0.3 l -0.2,0.1 z m 0.6,3.1 0.5,-0.3 0.2,0.3 c -0.1,0.4 -0.4,0.8 -0.7,1 l 0.5,0.2 c 0.1,0.1 0,0.3 -0.1,0.6 -0.3,-0.5 -0.6,-0.6 -0.8,-0.5 l -0.2,-0.2 0.6,-0.4 0.3,0 -0.1,-0.1 c -0.2,-0.1 -0.3,-0.2 -0.3,-0.3 l 0.1,-0.3 z M 63.8,44.8 C 64,44.5 64.1,44.3 64,44.1 l -0.1,0.1 c -0.1,0.1 -0.2,0.3 -0.1,0.6 z m 0.1,40.7 0.2,0.5 c 0.2,-0.1 0.2,-0.3 0,-0.5 L 64,85.4 63.9,85.5 Z m 0.2,-22.7 0.4,1.3 C 64.7,64 64.6,63.6 64.4,63 l -0.2,-0.2 -0.1,0 z M 64.2,62 c 0.1,0.1 0.1,0.3 0.1,0.6 0.1,0.1 0.3,0.2 0.4,0.1 -0.1,-0.2 -0.2,-0.4 -0.2,-0.7 l -0.3,0 z m 0.7,28.8 0.5,-0.3 -0.2,-0.2 -0.2,0.1 c -0.2,0.2 -0.2,0.3 -0.1,0.4 z M 67,85.3 c 0.2,0.1 0.3,0.2 0.3,0.3 L 67.4,85.5 67.1,85 67,85.3 Z m 0.2,1.1 0.2,0.2 0.1,-0.1 0.2,-0.3 c 0.1,0.1 0.1,0.1 0.2,0 L 67.8,86.1 C 67.6,86 67.5,85.9 67.5,85.8 L 67.3,86 c -0.1,0.1 -0.1,0.3 -0.1,0.4 z m 0.4,0.9 0.1,-0.1 0.1,0.1 c 0.1,0.1 0,0.5 -0.2,1.2 l -0.1,-0.1 c -0.1,-0.6 0,-1 0.1,-1.1 z m 1.1,-47.2 c 0.1,-0.1 0.3,0 0.6,0.1 l -0.1,0.1 -0.3,0 c 0.1,0.1 0,0.1 0,0.2 l -0.3,-0.2 0.1,-0.2 z m -0.1,42.2 0.2,-0.2 0.2,0.3 -0.2,0.2 -0.2,-0.3 z m 1.8,-43.5 0.1,-0.1 c 0.2,-0.1 0.3,-0.1 0.4,0.1 L 70.6,39 70.4,38.8 Z m 1.7,-1.2 0.3,-0.2 c 0.1,0.2 0.1,0.3 -0.1,0.4 l -0.1,0.1 -0.1,-0.3 z m 1.9,-1.9 0.6,-0.4 c 0.1,-0.1 0.1,0 0.2,0 L 75,35 c 0.1,-0.1 0.3,0 0.6,0.1 l -0.2,0.3 -0.1,0.1 -0.5,0 -0.1,0.1 L 74.4,36 74.1,35.8 74,35.7 Z m 1.7,-1.2 0.1,-0.1 c 0.2,-0.1 0.3,-0.1 0.4,0.1 l -0.2,0.3 0,0 -0.3,-0.3 z m 6.3,-1.9 0.2,0.2 c 0.1,-0.2 0.2,-0.3 0.3,-0.3 L 82.4,32.4 82,32.6 Z m 1.8,26.1 0.4,0.6 0.1,-0.1 C 84.1,59 84,58.7 84,58.5 l -0.2,0.2 z m 0.4,-2.3 c 0.1,0.1 0.1,0.2 0.1,0.4 l 0.3,-0.2 -0.2,-0.3 -0.2,0.1 z m 2.9,-27.4 0.2,0.2 c 0.3,-0.2 0.5,-0.2 0.7,0 0.2,-0.1 0.2,-0.4 0,-0.8 L 87.1,29 Z m 0.8,0.4 0.5,0.5 0.1,-0.1 -0.4,-0.6 -0.2,0.2 z m 0.3,-0.5 0.1,0.1 0.5,-0.3 -0.2,-0.2 -0.1,0.1 c -0.2,0.1 -0.3,0.2 -0.3,0.3 z m 0.3,-1.1 0.2,0.3 c 0.1,-0.2 0.2,-0.3 0.4,-0.4 l -0.2,-0.3 -0.1,0.1 c -0.2,0.2 -0.3,0.3 -0.3,0.3 z m 0.8,3 0.3,0.5 0.1,-0.1 C 89.6,31 89.5,30.9 89.5,30.7 l -0.2,0.1 z m 0.9,-3.6 0.2,0.3 c 0.2,-0.1 0.2,-0.2 0.1,-0.4 L 90.4,27 90.2,27.2 Z m 4.4,-2.5 0.2,0.2 0.1,-0.1 c 0.2,-0.1 0.2,-0.2 0.1,-0.4 l -0.4,0.3 z m 0.4,0.4 c 0.1,0.1 0.3,0.2 0.4,0.1 l 0,-0.3 -0.4,0.2 z m 0.8,-0.8 0.2,0.2 c 0.2,-0.1 0.4,-0.2 0.5,-0.2 l 0,-0.3 -0.1,0 c -0.2,0.1 -0.3,0.1 -0.3,0 -0.1,0.2 -0.2,0.3 -0.3,0.3 z m 0.4,4.6 0.1,0.1 c 0.1,0.1 0.3,0.2 0.6,0.1 L 97,29 c -0.2,-0.1 -0.3,-0.2 -0.5,-0.5 -0.1,0.3 -0.2,0.4 -0.3,0.4 z m 0.3,-5 0.2,0.2 0.3,-0.2 c -0.1,-0.2 -0.2,-0.2 -0.4,-0.1 l -0.1,0.1 z m 0.4,-0.6 0.2,0.2 c 0.2,-0.1 0.4,-0.2 0.5,-0.2 l 0.1,-0.1 -0.1,-0.1 c -0.2,0.1 -0.3,0.1 -0.4,-0.1 l -0.3,0.3 z m 1.4,-3.7 0.5,-0.3 0.2,0.2 -0.5,0.3 -0.2,-0.2 z m 0.3,3.9 0.2,0.3 C 99,23.7 99,23.6 98.9,23.4 l -0.3,0.1 z m 1.2,-2.4 0.2,0.3 0.2,-0.2 -0.1,-0.1 c 0,-0.1 -0.1,-0.1 -0.3,0 z m 0.4,1.1 0.1,0.1 c 0.1,0.1 0.3,0.2 0.4,0.1 l -0.2,-0.3 -0.3,0.1 z m 0.5,1.9 0.1,0.1 c 0.1,0.2 0.6,0.2 1.4,0.1 L 102,24 c -0.1,-0.1 -0.4,-0.2 -1,-0.2 l -0.3,0.3 z m 0.5,-3.9 0.2,0.3 0.3,-0.2 -0.2,-0.3 -0.3,0.2 z m 0.1,2.4 0.1,0.1 c 0.2,0.1 0.3,0.2 0.4,0.4 -0.1,0.1 -0.2,0.3 -0.1,0.4 l 0.2,0.2 0.1,-0.1 c 0.2,-0.1 0.2,-0.4 0,-0.8 -0.3,-0.2 -0.5,-0.3 -0.7,-0.2 z m 0.6,-2.6 0,0.3 0.1,0.1 c 0.1,-0.2 0.2,-0.3 0.5,-0.5 l -0.1,-0.1 -0.5,0.2 z m 0.3,1.9 c 0.1,-0.1 0.1,0 0.2,0 0.1,-0.3 0.3,-0.5 0.4,-0.6 l -0.2,-0.2 -0.3,0.2 c -0.1,0.1 -0.2,0.3 -0.1,0.6 z m 0.1,1.4 0,0.3 0.3,-0.2 c 0,-0.2 -0.1,-0.2 -0.3,-0.1 z m 0.4,-3.3 0,0.3 0.3,-0.2 c 0,-0.2 -0.1,-0.2 -0.3,-0.1 z m 0.2,3.7 0.1,0.1 c 0.2,0.1 0.3,0.2 0.3,0.3 l 0.5,-0.3 -0.2,-0.2 c -0.3,0.2 -0.5,0.2 -0.6,0.1 l -0.1,0 z m 0.9,-4.8 0.3,0.2 0.2,0.2 -0.1,0.1 -0.3,0 0.2,0.3 0.3,-0.2 0.2,-0.5 c 0.1,0.1 0.1,0.1 0.2,0 l -0.4,-0.6 -0.2,0.3 c -0.1,0.1 -0.3,0.1 -0.4,0.2 z m 1,1.9 0.3,0 c -0.1,-0.1 0,-0.1 0,-0.2 l 0.3,0.2 -0.1,0.8 -0.8,0.4 -0.2,-0.2 c 0.2,-0.4 0.4,-0.6 0.5,-1 z m 0.3,2.6 0.7,-0.3 0.1,-0.1 -0.1,-0.1 c -0.2,0.2 -0.4,0.2 -0.5,0 l -0.1,0.1 c -0.2,0.2 -0.2,0.3 -0.1,0.4 z m 0.9,-5.1 0.1,0.1 0.1,-0.1 -0.2,-0.5 c -0.2,0.1 -0.2,0.3 0,0.5 z m 0.5,1.1 c 0.2,0.1 0.3,0.2 0.3,0.3 l 0.1,-0.1 -0.2,-0.3 -0.2,0.1 z m 0.5,-0.5 0.2,0.2 c 0.1,0.1 0.3,0.2 0.4,0.1 l 0.2,-0.2 -0.1,-0.1 c -0.1,-0.1 -0.3,-0.2 -0.6,-0.1 l -0.1,0.1 z m 0.6,2.3 0.2,-0.2 0.1,0.1 0.3,0.7 c -0.2,0.1 -0.3,0.1 -0.4,-0.1 0,-0.1 -0.1,-0.3 -0.2,-0.5 z m 0.8,-2.2 0.2,-0.2 c 0.1,0.2 0.2,0.2 0.4,0.1 l 0.2,0.2 c 0.1,0.1 0,0.3 -0.1,0.6 -0.1,0.1 -0.3,0 -0.6,-0.1 0,-0.3 0,-0.5 -0.1,-0.6 z m 0,1.5 c 0.2,0 0.3,-0.1 0.4,-0.1 l 0.2,0.2 -0.5,0.3 -0.1,-0.1 0,-0.3 z m 0.3,-3.4 c 0.5,-0.3 0.9,-0.4 1.2,-0.2 l 0.3,-0.2 0.1,0.1 c 0.1,0.1 0,0.3 -0.2,0.7 -0.6,0.2 -1,0.3 -1.1,0.1 0.1,-0.1 0.1,-0.1 0,-0.2 -0.2,0.2 -0.4,0.2 -0.5,0 l 0.2,-0.3 z m -0.1,-0.6 c 0.1,-0.1 0.1,0 0.2,0 l 0.2,-0.3 0.1,-0.1 0.2,0.2 -0.5,0.3 -0.2,-0.1 z m 1.1,1.8 c 0.1,0 0.3,0.2 0.5,0.5 -0.2,0 -0.3,0.1 -0.4,0.1 0.1,0.2 0.1,0.3 -0.1,0.4 l -0.4,-0.6 c 0,0 0.1,-0.1 0.4,-0.4 z m 0.7,-0.4 c 0.2,-0.1 0.3,-0.1 0.4,0.1 l 0.5,-0.5 0.3,-0.2 0.3,0.5 -0.1,0.1 -0.7,0 c 0.1,0.2 0.1,0.3 -0.1,0.4 l -0.7,0.3 -0.1,-0.1 c 0.1,-0.3 0.1,-0.5 0.2,-0.6 z m 1.1,-1.9 0.1,0.1 0.2,-0.3 0.3,-0.2 c 0.1,0.1 0,0.3 -0.2,0.7 l -0.1,-0.1 c -0.3,0.2 -0.4,0.5 -0.1,0.8 -0.4,0.1 -0.7,0.3 -0.9,0.4 l -0.2,-0.2 c 0.1,-0.1 0.4,-0.5 0.9,-1.2 z m 0.8,1 0.2,-0.2 0.2,0.3 -0.5,0.3 -0.1,-0.1 c 0,-0.1 0.1,-0.2 0.2,-0.3 z"
       id="path5"
       style="fill:#ffffff"
       inkscape:connector-curvature="0" /></g></svg>